<svg width="53" height="34" viewBox="0 0 53 34" fill="none" xmlns="http://www.w3.org/2000/svg">
<g clip-path="url(#clip0_827_3244)">
<path d="M47.6949 14.292L43.155 8.42476L44.5833 5.26547H39.8903L29.2291 1.00293L2.65255 18.2035L0 22.6666L1.07122 23.3186L3.21367 20.5103L4.23388 24.823L2.70356 26.7787L4.74398 34H7.39653L6.2743 28.9351L7.90664 27.2301L9.43696 32.7964H11.9875L11.0693 28.0324L13.3648 25.4248L24.3831 26.5781L25.8114 34H28.821V26.3776L31.0144 25.2242L32.0346 32.6961H34.5852L35.1973 24.472L41.0125 20.761L43.206 20.8112L46.9297 18.1534L46.5727 20.41L50.1434 19.5074L51.9798 16.6991L47.6949 14.292Z" fill="#181818"/>
<path d="M47.6949 14.292L43.155 8.42476L44.5833 5.26547H39.8903L29.2291 1.00293L2.65255 18.2035L0 22.6666L1.07122 23.3186L3.21367 20.5103L4.23388 24.823L2.70356 26.7787L4.74398 34H7.39653L6.2743 28.9351L7.90664 27.2301L9.43696 32.7964H11.9875L11.0693 28.0324L13.3648 25.4248L24.3831 26.5781L25.8114 34H28.821V26.3776L31.0144 25.2242L32.0346 32.6961H34.5852L35.1973 24.472L41.0125 20.761L43.206 20.8112L46.9297 18.1534L46.5727 20.41L50.1434 19.5074L51.9798 16.6991L47.6949 14.292Z" fill="#181818"/>
</g>
<defs>
<clipPath id="clip0_827_3244">
<rect width="53" height="34" fill="white"/>
</clipPath>
</defs>
</svg>
